<mxfile host="65bd71144e">
    <diagram id="g_z5LibgCN57cee2yOvP" name="Page-1">
        <mxGraphModel dx="1340" dy="614" grid="1" gridSize="10" guides="1" tooltips="1" connect="1" arrows="1" fold="1" page="1" pageScale="1" pageWidth="850" pageHeight="1100" math="0" shadow="0">
            <root>
                <mxCell id="0"/>
                <mxCell id="1" parent="0"/>
                <mxCell id="uB_ADN-PQVO7pmlwdkGX-3" value="" style="edgeStyle=orthogonalEdgeStyle;rounded=0;orthogonalLoop=1;jettySize=auto;html=1;" parent="1" source="uB_ADN-PQVO7pmlwdkGX-1" target="uB_ADN-PQVO7pmlwdkGX-2" edge="1">
                    <mxGeometry relative="1" as="geometry"/>
                </mxCell>
                <mxCell id="uB_ADN-PQVO7pmlwdkGX-1" value="Начало" style="rounded=1;whiteSpace=wrap;html=1;" parent="1" vertex="1">
                    <mxGeometry x="160" y="190" width="120" height="60" as="geometry"/>
                </mxCell>
                <mxCell id="uB_ADN-PQVO7pmlwdkGX-5" value="" style="edgeStyle=orthogonalEdgeStyle;rounded=0;orthogonalLoop=1;jettySize=auto;html=1;" parent="1" source="uB_ADN-PQVO7pmlwdkGX-2" target="uB_ADN-PQVO7pmlwdkGX-4" edge="1">
                    <mxGeometry relative="1" as="geometry"/>
                </mxCell>
                <mxCell id="uB_ADN-PQVO7pmlwdkGX-2" value="Ввод переменых x,y,x" style="whiteSpace=wrap;html=1;rounded=1;arcSize=0;" parent="1" vertex="1">
                    <mxGeometry x="160" y="330" width="120" height="60" as="geometry"/>
                </mxCell>
                <mxCell id="uB_ADN-PQVO7pmlwdkGX-15" style="edgeStyle=orthogonalEdgeStyle;rounded=0;orthogonalLoop=1;jettySize=auto;html=1;" parent="1" source="uB_ADN-PQVO7pmlwdkGX-4" edge="1">
                    <mxGeometry relative="1" as="geometry">
                        <mxPoint x="220" y="580" as="targetPoint"/>
                    </mxGeometry>
                </mxCell>
                <mxCell id="uB_ADN-PQVO7pmlwdkGX-4" value="x&amp;gt;y" style="rhombus;whiteSpace=wrap;html=1;rounded=1;arcSize=0;" parent="1" vertex="1">
                    <mxGeometry x="180" y="460" width="80" height="80" as="geometry"/>
                </mxCell>
                <mxCell id="b3ZY7X99cZ92L0B1qrAu-1" value="x&amp;gt;1" style="rhombus;whiteSpace=wrap;html=1;" vertex="1" parent="1">
                    <mxGeometry x="180" y="580" width="80" height="80" as="geometry"/>
                </mxCell>
            </root>
        </mxGraphModel>
    </diagram>
    <diagram id="E33DOWk7oqeAET7O4sIz" name="Page-2">
        <mxGraphModel dx="1340" dy="614" grid="1" gridSize="10" guides="1" tooltips="1" connect="1" arrows="1" fold="1" page="1" pageScale="1" pageWidth="850" pageHeight="1100" math="0" shadow="0">
            <root>
                <mxCell id="QL6RqsaCFulvN-1FykTd-0"/>
                <mxCell id="QL6RqsaCFulvN-1FykTd-1" parent="QL6RqsaCFulvN-1FykTd-0"/>
            </root>
        </mxGraphModel>
    </diagram>
</mxfile>